{"glyphs":{":":{"x_min":0,"x_max":352,"ha":352,"o":"m 70 316 l 70 531 l 282 531 l 282 316 z m 70 0 l 70 216 l 282 216 l 282 0 z"},"$":{"x_min":0,"x_max":657,"ha":657,"o":"m 300 454 l 300 587 l 296 587 q 254 587 233 571 q 211 555 211 522 q 211 497 231 482 q 251 466 300 454 z m 289 -94 l 289 -11 q 163 -6 94 56 q 26 118 25 228 l 205 228 q 208 172 227 148 q 246 124 285 122 l 286 283 q 153 312 94 364 q 35 415 35 499 q 35 593 105 650 q 176 708 295 710 l 295 773 l 374 773 l 374 711 q 488 708 552 652 q 616 596 620 496 l 449 496 q 446 539 427 562 q 408 584 372 585 l 372 437 q 513 403 572 351 q 630 298 630 209 q 630 105 564 51 q 497 -4 363 -12 l 363 -94 z m 358 122 q 405 122 429 139 q 454 155 454 188 q 454 216 433 233 q 413 250 358 265 z"},"?":{"x_min":0,"x_max":627,"ha":627,"o":"m 214 256 q 213 263 213 271 q 213 278 213 293 q 213 348 229 382 q 245 416 280 436 q 294 444 321 457 q 385 485 385 522 q 385 549 366 566 q 348 583 316 583 q 280 583 260 562 q 241 540 241 500 l 241 497 l 31 497 q 37 613 112 676 q 186 738 319 738 q 444 738 520 680 q 596 623 596 529 q 596 495 587 469 q 578 442 559 421 q 537 396 478 365 q 453 352 441 345 q 416 331 407 316 q 399 302 399 275 q 399 272 399 266 q 400 260 400 256 z m 201 0 l 201 198 l 411 198 l 411 0 z"},"<":{"x_min":0,"x_max":833,"ha":833,"o":"m 704 458 l 313 298 l 704 138 l 704 -8 l 129 230 l 129 367 l 704 605 z"},"'":{"x_min":0,"x_max":192,"ha":192,"o":"m 159 703 l 159 428 l 33 428 l 33 703 z"},"=":{"x_min":0,"x_max":833,"ha":833,"o":"m 709 250 l 709 117 l 124 117 l 124 250 z m 709 480 l 709 347 l 124 347 l 124 480 z"},"a":{"x_min":0,"x_max":689,"ha":689,"o":"m 416 237 q 385 225 335 212 q 256 191 256 156 q 256 133 271 121 q 287 108 316 108 q 369 108 393 132 q 417 157 417 210 q 417 221 417 227 q 417 232 416 237 z m 435 0 l 422 51 q 381 15 334 -2 q 288 -19 229 -19 q 139 -19 90 25 q 41 69 41 150 q 41 229 89 266 q 138 304 272 321 q 289 323 318 326 q 418 337 418 378 q 418 401 400 411 q 381 422 342 422 q 309 422 292 409 q 274 396 271 369 l 65 369 q 66 458 138 504 q 210 550 349 550 q 415 550 470 538 q 525 525 556 505 q 594 479 609 448 q 624 416 624 356 l 624 60 q 624 45 630 34 q 636 22 647 15 l 647 0 z"},"L":{"x_min":0,"x_max":639,"ha":639,"o":"m 68 0 l 68 719 l 299 719 l 299 191 l 613 191 l 613 0 z"},"3":{"x_min":0,"x_max":657,"ha":657,"o":"m 33 248 l 225 248 q 227 196 251 170 q 275 145 324 145 q 367 145 389 166 q 412 187 412 227 q 412 268 385 286 q 358 304 298 304 l 281 304 l 281 425 l 295 425 q 351 425 379 443 q 407 461 407 497 q 407 529 387 545 q 367 562 329 562 q 286 562 264 543 q 241 523 239 485 l 50 485 q 52 592 130 656 q 207 721 334 721 q 456 721 528 665 q 601 609 601 517 q 601 470 582 435 q 562 401 524 380 q 572 361 596 323 q 619 284 619 223 q 619 109 540 44 q 460 -20 318 -20 q 187 -20 110 49 q 33 117 33 234 z"},";":{"x_min":0,"x_max":352,"ha":352,"o":"m 70 316 l 70 531 l 282 531 l 282 316 z m 70 -179 l 70 -86 q 121 -79 145 -56 q 168 -34 168 7 l 70 7 l 70 216 l 282 216 l 282 4 q 282 -75 227 -123 q 172 -170 70 -179 z"},"J":{"x_min":0,"x_max":641,"ha":641,"o":"m 21 310 l 225 310 l 225 243 q 225 199 239 180 q 252 162 284 162 q 318 162 332 182 q 345 202 345 259 l 345 719 l 576 719 l 576 235 q 576 110 503 45 q 431 -20 292 -20 q 155 -20 87 49 q 19 119 19 259 q 19 274 21 307 z"},"V":{"x_min":0,"x_max":733,"ha":733,"o":"m 9 719 l 245 719 l 366 255 l 496 719 l 723 719 l 481 0 l 251 0 z"},"\"":{"x_min":0,"x_max":370,"ha":370,"o":"m 337 703 l 337 428 l 210 428 l 210 703 z m 159 703 l 159 428 l 33 428 l 33 703 z"},"7":{"x_min":0,"x_max":657,"ha":657,"o":"m 155 0 q 166 151 222 279 q 278 407 387 528 l 45 528 l 45 701 l 606 701 l 606 548 q 506 446 453 311 q 400 176 392 0 z"},"S":{"x_min":0,"x_max":713,"ha":713,"o":"m 34 224 l 259 224 q 268 185 292 168 q 317 151 365 151 q 406 151 429 165 q 452 179 452 203 q 452 242 355 267 q 335 271 325 274 q 246 294 198 311 q 151 328 130 343 q 88 373 68 414 q 47 456 47 509 q 47 616 127 677 q 208 738 349 738 q 488 738 567 679 q 647 621 657 512 l 438 512 q 433 544 410 560 q 387 575 345 575 q 308 575 290 563 q 272 551 272 526 q 272 490 367 466 q 375 464 379 463 q 393 459 421 453 q 546 421 585 395 q 633 363 655 323 q 677 282 677 227 q 677 108 594 44 q 510 -20 355 -20 q 212 -20 128 44 q 44 108 34 224 z"},"}":{"x_min":0,"x_max":500,"ha":500,"o":"m 313 566 l 313 440 q 313 378 336 353 q 358 327 413 327 q 416 327 421 328 q 427 328 430 328 l 430 190 q 427 190 421 190 q 416 191 413 191 q 358 191 336 166 q 313 140 313 78 l 313 -48 q 313 -111 301 -139 q 289 -166 259 -181 q 237 -192 203 -197 q 168 -202 105 -202 l 59 -202 l 59 -64 q 63 -64 70 -64 q 77 -65 80 -65 q 123 -65 137 -50 q 152 -36 152 12 l 152 130 q 152 194 175 221 q 197 248 258 259 q 198 270 175 296 q 152 323 152 388 l 152 506 q 152 554 137 568 q 123 583 80 583 q 77 583 70 583 q 63 582 59 582 l 59 721 l 98 721 q 166 721 201 716 q 236 711 259 699 q 289 684 301 657 q 313 629 313 566 z"},"Z":{"x_min":0,"x_max":705,"ha":705,"o":"m 34 0 l 34 173 l 367 533 l 45 533 l 45 719 l 651 719 l 651 548 l 314 185 l 669 185 l 669 0 z"},"x":{"x_min":0,"x_max":597,"ha":597,"o":"m -11 0 l 177 279 l 4 531 l 234 531 l 302 405 l 372 531 l 602 531 l 424 281 l 608 0 l 373 0 l 295 147 l 221 0 z"},")":{"x_min":0,"x_max":412,"ha":412,"o":"m 37 719 l 212 719 q 266 594 293 482 q 320 371 320 271 q 320 171 293 60 q 266 -52 212 -177 l 37 -177 q 83 -57 105 54 q 128 165 128 271 q 128 377 105 487 q 83 598 37 719 z"},"&":{"x_min":0,"x_max":845,"ha":845,"o":"m 378 468 q 419 483 438 502 q 457 522 457 550 q 457 578 437 595 q 417 612 384 612 q 352 612 334 596 q 317 581 317 553 q 317 529 331 509 q 346 489 378 468 z m 424 182 l 320 290 q 284 273 265 250 q 247 228 247 201 q 247 173 266 157 q 286 141 319 141 q 346 141 373 152 q 399 162 424 182 z m 600 0 l 540 62 q 486 21 424 0 q 362 -20 290 -20 q 175 -20 111 37 q 47 94 47 195 q 47 269 84 322 q 121 375 201 414 q 167 444 151 478 q 135 512 135 551 q 135 640 199 689 q 263 739 378 739 q 493 739 558 684 q 624 629 624 535 q 624 476 595 432 q 565 387 505 354 l 566 290 q 580 302 592 317 q 604 333 617 353 l 806 353 q 784 304 753 259 q 721 213 680 172 l 846 0 z"},"_":{"x_min":0,"x_max":500,"ha":500,"o":"m 500 -98 l 500 -236 l 0 -236 l 0 -98 z"},"v":{"x_min":0,"x_max":581,"ha":581,"o":"m 179 0 l -6 531 l 204 531 l 296 212 l 386 531 l 587 531 l 415 0 z"},"O":{"x_min":0,"x_max":822,"ha":822,"o":"m 270 359 q 270 257 304 209 q 338 161 411 161 q 483 161 517 209 q 551 256 551 359 q 551 462 517 510 q 483 557 411 557 q 338 557 304 509 q 270 461 270 359 z m 37 359 q 37 535 137 636 q 238 738 411 738 q 584 738 684 636 q 784 535 784 359 q 784 184 684 82 q 584 -20 411 -20 q 238 -20 137 82 q 37 184 37 359 z"},"(":{"x_min":0,"x_max":412,"ha":412,"o":"m 379 718 q 333 596 310 486 q 288 376 288 271 q 288 165 311 54 q 333 -57 379 -177 l 204 -177 q 150 -54 123 58 q 96 170 96 271 q 96 367 122 476 q 148 584 204 718 z"},"C":{"x_min":0,"x_max":782,"ha":782,"o":"m 534 279 l 753 279 q 743 137 653 58 q 562 -20 408 -20 q 235 -20 136 81 q 37 183 37 359 q 37 535 135 636 q 233 738 403 738 q 559 738 649 662 q 738 587 749 447 l 528 447 q 523 502 492 530 q 461 558 406 558 q 338 558 304 509 q 270 459 270 359 q 270 261 306 210 q 342 160 412 160 q 466 160 497 191 q 529 222 534 279 z"},"W":{"x_min":0,"x_max":985,"ha":985,"o":"m 182 0 l 9 719 l 234 719 l 312 255 l 403 719 l 594 719 l 681 255 l 757 719 l 976 719 l 805 0 l 576 0 l 494 431 l 415 0 z"},"A":{"x_min":0,"x_max":735,"ha":735,"o":"m 294 246 l 439 246 l 367 495 z m -3 0 l 250 719 l 484 719 l 737 0 l 508 0 l 481 95 l 252 95 l 224 0 z"},"f":{"x_min":0,"x_max":384,"ha":384,"o":"m 77 0 l 77 411 l 11 411 l 11 531 l 77 531 l 77 564 q 77 653 121 695 q 166 737 259 737 l 377 737 l 377 604 q 373 604 366 604 q 358 605 355 605 q 316 605 301 592 q 286 579 286 547 q 286 544 287 539 q 287 534 287 531 l 377 531 l 377 411 l 287 411 l 287 0 z"},"Q":{"x_min":0,"x_max":822,"ha":822,"o":"m 678 -78 l 585 19 q 550 0 504 -10 q 459 -20 406 -20 q 239 -20 138 83 q 37 185 37 355 q 37 533 137 635 q 238 738 411 738 q 584 738 684 636 q 784 535 784 359 q 784 287 763 225 q 743 163 701 108 l 784 23 z m 454 159 l 365 251 l 464 346 l 546 260 q 551 282 554 305 q 557 327 557 348 q 557 463 523 514 q 488 565 411 565 q 335 565 300 515 q 264 465 264 359 q 264 252 300 202 q 335 153 412 153 q 423 153 434 154 q 444 156 454 159 z"},"w":{"x_min":0,"x_max":932,"ha":932,"o":"m 186 0 l 11 531 l 220 531 l 299 207 l 381 531 l 559 531 l 641 207 l 720 531 l 921 531 l 754 0 l 547 0 l 470 307 l 393 0 z"},"-":{"x_min":0,"x_max":350,"ha":350,"o":"m 49 175 l 49 363 l 301 363 l 301 175 z"},"E":{"x_min":0,"x_max":697,"ha":697,"o":"m 68 0 l 68 719 l 643 719 l 643 547 l 299 547 l 299 451 l 590 451 l 590 286 l 299 286 l 299 175 l 657 175 l 657 0 z"},"s":{"x_min":0,"x_max":612,"ha":612,"o":"m 31 167 l 236 167 q 236 133 253 117 q 271 100 305 100 q 338 100 356 111 q 374 123 374 144 q 374 180 295 197 q 289 198 285 199 q 136 231 90 268 q 45 304 45 375 q 45 460 112 505 q 178 550 306 550 q 425 550 490 508 q 555 466 565 383 l 375 383 q 373 407 354 421 q 336 435 308 435 q 280 435 266 426 q 251 416 251 398 q 251 366 323 351 q 342 347 352 345 q 496 312 540 275 q 583 237 583 165 q 583 74 512 27 q 441 -19 302 -19 q 173 -19 105 27 q 38 74 31 167 z"},">":{"x_min":0,"x_max":833,"ha":833,"o":"m 704 367 l 704 230 l 129 -8 l 129 138 l 520 298 l 129 458 l 129 605 z"},"l":{"x_min":0,"x_max":338,"ha":338,"o":"m 62 0 l 62 719 l 275 719 l 275 0 z"},"8":{"x_min":0,"x_max":657,"ha":657,"o":"m 231 220 q 231 179 256 156 q 281 134 327 134 q 373 134 398 156 q 423 179 423 220 q 423 262 397 286 q 372 310 327 310 q 282 310 256 286 q 231 262 231 220 z m 237 502 q 237 465 260 445 q 284 425 327 425 q 370 425 393 445 q 416 465 416 502 q 416 534 391 554 q 366 575 327 575 q 288 575 262 554 q 237 534 237 502 z m 138 371 q 91 395 69 430 q 47 465 47 515 q 47 610 122 665 q 196 720 327 720 q 458 720 532 665 q 607 610 607 515 q 607 465 585 430 q 562 395 516 371 q 573 348 601 308 q 629 268 629 208 q 629 100 550 41 q 471 -18 327 -18 q 183 -18 104 41 q 25 100 25 208 q 25 268 53 308 q 81 348 138 371 z"},"\\":{"x_min":0,"x_max":338,"ha":338,"o":"m 262 -93 l -4 738 l 86 738 l 352 -93 z"},"e":{"x_min":0,"x_max":666,"ha":666,"o":"m 240 325 l 428 325 q 425 375 401 399 q 377 424 332 424 q 291 424 266 398 q 242 372 240 325 z m 417 157 l 619 157 q 597 70 523 26 q 448 -19 326 -19 q 189 -19 109 57 q 29 133 29 261 q 29 395 111 472 q 193 550 334 550 q 476 550 556 466 q 636 381 636 232 l 636 219 l 240 219 q 242 168 267 140 q 292 113 338 113 q 369 113 389 124 q 410 136 417 157 z"},"b":{"x_min":0,"x_max":676,"ha":676,"o":"m 261 260 q 261 202 284 170 q 307 137 348 137 q 389 137 411 169 q 434 202 434 260 q 434 323 413 353 q 392 383 348 383 q 304 383 282 353 q 261 322 261 260 z m 57 0 l 57 719 l 263 719 l 263 475 q 294 510 333 528 q 371 546 415 546 q 520 546 583 469 q 646 392 646 263 q 646 136 583 58 q 521 -19 418 -19 q 364 -19 321 2 q 278 22 244 65 l 244 0 z"},"%":{"x_min":0,"x_max":1019,"ha":1019,"o":"m 696 197 q 696 162 719 138 q 743 114 778 114 q 812 114 836 138 q 861 163 861 197 q 861 231 837 256 q 812 280 778 280 q 744 280 720 256 q 696 231 696 197 z m 562 197 q 562 289 624 351 q 687 414 778 414 q 867 414 931 350 q 995 287 995 197 q 995 108 931 44 q 867 -20 778 -20 q 687 -20 624 43 q 562 105 562 197 z m 259 -20 l 660 721 l 759 721 l 358 -20 z m 157 504 q 157 469 181 445 q 205 421 240 421 q 274 421 298 445 q 322 470 322 504 q 322 539 298 563 q 274 587 240 587 q 206 587 181 563 q 157 539 157 504 z m 23 504 q 23 596 86 658 q 148 721 240 721 q 329 721 393 657 q 456 594 456 504 q 456 415 393 351 q 329 287 240 287 q 148 287 86 350 q 23 413 23 504 z"},"m":{"x_min":0,"x_max":1024,"ha":1024,"o":"m 57 0 l 57 531 l 249 531 l 249 453 q 284 500 328 522 q 372 545 429 545 q 481 545 519 523 q 557 501 587 453 q 625 501 671 523 q 717 546 775 546 q 869 546 920 498 q 972 449 972 362 l 972 0 l 764 0 l 764 284 q 764 334 747 356 q 730 379 693 379 q 654 379 636 355 q 618 332 618 282 l 618 0 l 411 0 l 411 277 q 411 332 394 355 q 376 379 337 379 q 302 379 283 355 q 265 331 265 285 l 265 0 z"},"#":{"x_min":0,"x_max":769,"ha":769,"o":"m 462 407 l 345 407 l 307 303 l 424 303 z m 458 718 l 395 539 l 506 539 l 569 718 l 710 718 l 647 539 l 772 539 l 723 407 l 600 407 l 563 303 l 689 303 l 640 171 l 516 171 l 452 -8 l 311 -8 l 375 171 l 264 171 l 200 -8 l 59 -8 l 123 171 l -3 171 l 46 303 l 170 303 l 206 407 l 80 407 l 128 539 l 254 539 l 317 718 z"},",":{"x_min":0,"x_max":329,"ha":329,"o":"m 58 -179 l 58 -86 q 109 -79 133 -56 q 156 -34 156 7 l 58 7 l 58 216 l 270 216 l 270 4 q 270 -75 215 -123 q 160 -170 58 -179 z"},"n":{"x_min":0,"x_max":683,"ha":683,"o":"m 57 0 l 57 531 l 249 531 l 249 453 q 286 500 332 522 q 377 545 435 545 q 483 545 521 529 q 560 513 586 481 q 610 452 620 411 q 630 370 630 276 l 630 0 l 419 0 l 419 275 q 419 335 403 358 q 387 381 347 381 q 307 381 288 354 q 268 328 268 274 l 268 0 z"},"h":{"x_min":0,"x_max":683,"ha":683,"o":"m 57 0 l 57 719 l 268 719 l 268 474 q 300 510 341 527 q 382 545 431 545 q 482 545 521 529 q 559 513 586 481 q 610 452 620 410 q 630 367 630 276 l 630 0 l 419 0 l 419 275 q 419 335 403 358 q 387 381 347 381 q 307 381 288 354 q 268 328 268 274 l 268 0 z"},"z":{"x_min":0,"x_max":535,"ha":535,"o":"m 13 0 l 13 143 l 255 376 l 34 376 l 34 531 l 504 531 l 504 389 l 268 155 l 516 155 l 516 0 z"},"B":{"x_min":0,"x_max":758,"ha":758,"o":"m 292 168 l 399 168 q 452 168 475 184 q 497 199 497 235 q 497 271 474 286 q 451 301 397 301 l 292 301 z m 292 432 l 387 432 q 435 432 455 446 q 474 460 474 494 q 474 530 453 543 q 432 556 356 556 l 292 556 z m 68 0 l 68 719 l 363 719 q 458 719 501 714 q 545 709 576 698 q 631 678 660 634 q 689 591 689 529 q 689 480 667 444 q 646 407 602 384 q 659 363 687 322 q 714 281 714 216 q 714 152 687 105 q 661 58 610 32 q 576 15 532 7 q 488 0 386 0 z"},"K":{"x_min":0,"x_max":780,"ha":780,"o":"m 68 0 l 68 719 l 297 719 l 297 481 l 504 719 l 772 719 l 515 454 l 805 0 l 530 0 l 354 288 l 297 229 l 297 0 z"},"R":{"x_min":0,"x_max":763,"ha":763,"o":"m 296 410 l 401 410 q 456 410 477 425 q 498 440 498 477 q 498 515 477 530 q 456 545 395 545 l 296 545 z m 68 0 l 68 719 l 412 719 q 574 719 643 671 q 712 623 712 512 q 712 446 684 403 q 655 359 596 334 q 656 321 684 284 q 711 247 713 174 l 717 74 q 717 73 717 72 q 719 29 738 27 l 738 0 l 505 0 q 499 26 495 45 q 492 64 492 75 l 492 147 q 492 203 470 225 q 448 248 394 248 l 296 248 l 296 0 z"},"T":{"x_min":0,"x_max":664,"ha":664,"o":"m 219 0 l 219 530 l 12 530 l 12 719 l 653 719 l 653 530 l 450 530 l 450 0 z"},"P":{"x_min":0,"x_max":738,"ha":738,"o":"m 299 396 l 373 396 q 445 396 470 412 q 494 428 494 469 q 494 511 471 527 q 447 543 373 543 l 299 543 z m 68 0 l 68 719 l 364 719 q 462 719 519 708 q 577 696 615 671 q 665 637 689 587 q 714 538 714 469 q 714 349 643 284 q 571 220 437 220 l 299 220 l 299 0 z"},"|":{"x_min":0,"x_max":500,"ha":500,"o":"m 319 764 l 319 -236 l 182 -236 l 182 764 z"},"t":{"x_min":0,"x_max":429,"ha":429,"o":"m 301 197 q 301 170 316 159 q 332 148 372 148 q 384 148 390 148 q 396 148 402 149 l 402 -4 q 363 -6 331 -8 q 299 -9 271 -9 q 170 -9 131 25 q 91 59 91 143 l 91 409 l 16 409 l 16 531 l 91 531 l 91 695 l 301 695 l 301 531 l 400 531 l 400 409 l 301 409 z"},"M":{"x_min":0,"x_max":947,"ha":947,"o":"m 277 0 l 68 0 l 68 719 l 349 719 l 449 360 q 451 353 457 327 q 462 301 473 255 q 480 291 486 318 q 492 345 496 359 l 598 719 l 879 719 l 879 0 l 670 0 l 672 354 q 672 386 672 417 q 672 447 673 480 q 661 424 645 358 l 643 352 l 554 0 l 393 0 l 303 344 q 297 368 291 398 q 284 428 274 480 q 275 434 276 400 q 277 367 277 347 z"},"g":{"x_min":0,"x_max":677,"ha":677,"o":"m 242 269 q 242 205 263 174 q 284 143 327 143 q 373 143 394 173 q 416 204 416 268 q 416 326 393 357 q 370 389 327 389 q 284 389 263 359 q 242 329 242 269 z m 67 -57 l 276 -57 q 280 -76 294 -84 q 309 -93 338 -93 q 384 -93 401 -72 q 417 -52 417 18 l 417 47 q 390 21 353 8 q 316 -5 269 -5 q 162 -5 97 69 q 32 142 32 264 q 32 393 94 469 q 156 545 259 545 q 316 545 359 525 q 402 504 433 462 l 433 531 l 620 531 l 620 41 q 620 -98 552 -156 q 484 -214 323 -214 q 211 -214 145 -173 q 78 -132 67 -57 z"},"j":{"x_min":0,"x_max":343,"ha":343,"o":"m 71 585 l 71 737 l 284 737 l 284 585 z m 284 531 l 284 -8 q 284 -119 242 -166 q 199 -214 102 -214 l -17 -214 l -17 -57 l 2 -57 q 44 -57 57 -43 q 71 -29 71 16 l 71 531 z"},"i":{"x_min":0,"x_max":338,"ha":338,"o":"m 62 585 l 62 737 l 275 737 l 275 585 z m 62 0 l 62 531 l 275 531 l 275 0 z"},"y":{"x_min":0,"x_max":587,"ha":587,"o":"m 65 -209 l 65 -52 l 125 -52 q 156 -52 169 -41 q 183 -31 183 -7 q 183 3 180 16 q 178 29 172 45 l -6 531 l 208 531 l 301 209 l 391 531 l 590 531 l 418 3 q 389 -86 373 -119 q 357 -152 339 -169 q 315 -193 281 -203 q 248 -213 172 -213 q 150 -213 123 -212 q 95 -211 65 -209 z"},"@":{"x_min":0,"x_max":1000,"ha":1000,"o":"m 606 445 l 630 485 l 748 485 l 672 179 q 671 173 670 170 q 670 167 670 164 q 670 152 676 146 q 682 140 693 140 q 755 140 806 209 q 856 279 856 371 q 856 486 771 557 q 686 628 545 628 q 476 628 415 611 q 354 593 305 559 q 230 506 189 428 q 148 349 148 257 q 148 113 245 28 q 343 -57 507 -57 q 585 -57 657 -34 q 729 -11 793 34 l 849 -44 q 769 -104 682 -132 q 595 -161 496 -161 q 404 -161 323 -135 q 241 -108 179 -58 q 106 0 70 78 q 34 156 34 254 q 34 340 61 416 q 88 493 141 555 q 214 642 318 688 q 421 734 543 734 q 731 734 849 633 q 966 533 966 373 q 966 290 933 219 q 899 149 837 101 q 803 74 762 60 q 721 46 677 46 q 624 46 595 64 q 567 83 563 121 q 534 82 501 64 q 467 47 422 47 q 338 47 296 90 q 254 133 254 218 q 254 338 324 419 q 394 499 498 499 q 534 499 562 485 q 589 472 606 445 z m 550 241 l 573 336 q 569 369 552 387 q 535 406 508 406 q 461 406 426 349 q 391 292 391 215 q 391 180 406 160 q 421 141 448 141 q 483 141 511 168 q 539 195 550 241 z"},".":{"x_min":0,"x_max":329,"ha":329,"o":"m 58 0 l 58 216 l 270 216 l 270 0 z"},"p":{"x_min":0,"x_max":677,"ha":677,"o":"m 437 264 q 437 327 416 357 q 395 387 352 387 q 306 387 284 358 q 263 328 263 264 q 263 204 285 174 q 307 144 350 144 q 393 144 415 174 q 437 205 437 264 z m 58 -213 l 58 531 l 245 531 l 245 463 q 276 505 318 525 q 359 545 417 545 q 520 545 584 468 q 648 390 648 264 q 648 135 584 59 q 521 -18 413 -18 q 364 -18 327 -1 q 291 15 263 50 l 263 -213 z"},"X":{"x_min":0,"x_max":731,"ha":731,"o":"m -7 0 l 240 374 l 15 719 l 275 719 l 371 537 l 476 719 l 730 719 l 497 374 l 738 0 l 477 0 l 368 195 l 259 0 z"},"*":{"x_min":0,"x_max":500,"ha":500,"o":"m 249 410 l 165 288 l 66 360 l 158 476 l 26 513 l 64 629 l 191 584 l 191 719 l 307 719 l 307 584 l 434 628 l 472 512 l 339 477 l 432 360 l 332 290 z"},"Y":{"x_min":0,"x_max":736,"ha":736,"o":"m 256 0 l 256 266 l -9 719 l 247 719 l 371 474 l 496 719 l 745 719 l 487 266 l 487 0 z"},"c":{"x_min":0,"x_max":652,"ha":652,"o":"m 411 207 l 622 207 q 615 102 538 42 q 461 -19 334 -19 q 193 -19 111 58 q 29 134 29 266 q 29 398 110 474 q 191 550 332 550 q 460 550 538 490 q 616 430 620 329 l 409 329 q 406 367 387 385 q 368 403 331 403 q 285 403 264 370 q 242 337 242 266 q 242 194 263 161 q 284 128 329 128 q 366 128 386 148 q 407 168 411 207 z"},"!":{"x_min":0,"x_max":375,"ha":375,"o":"m 129 257 l 80 539 l 80 719 l 295 719 l 295 539 l 246 257 z m 82 0 l 82 198 l 293 198 l 293 0 z"},"/":{"x_min":0,"x_max":338,"ha":338,"o":"m 86 -93 l -4 -93 l 262 738 l 352 738 z"},"[":{"x_min":0,"x_max":431,"ha":431,"o":"m 104 719 l 420 719 l 420 567 l 291 567 l 291 -28 l 420 -28 l 420 -175 l 104 -175 z"},"6":{"x_min":0,"x_max":657,"ha":657,"o":"m 242 234 q 242 190 267 165 q 292 139 336 139 q 378 139 403 165 q 428 190 428 233 q 428 277 404 303 q 379 328 337 328 q 293 328 268 302 q 242 277 242 234 z m 236 412 q 264 437 303 450 q 343 463 392 463 q 502 463 568 400 q 634 338 634 233 q 634 116 557 49 q 479 -19 345 -19 q 188 -19 109 74 q 29 167 29 349 q 29 524 112 622 q 196 720 345 720 q 457 720 530 669 q 603 617 622 525 l 428 518 q 420 546 399 561 q 378 575 347 575 q 295 575 267 535 q 240 494 236 412 z"},"r":{"x_min":0,"x_max":457,"ha":457,"o":"m 58 0 l 58 531 l 253 531 l 253 434 q 274 492 313 518 q 353 545 418 545 l 437 545 l 437 334 q 425 335 415 336 q 404 337 394 337 q 330 337 300 308 q 270 279 270 218 l 270 0 z"},"2":{"x_min":0,"x_max":657,"ha":657,"o":"m 27 0 q 27 3 26 9 q 26 14 26 17 q 26 92 72 158 q 118 225 220 297 q 247 316 295 347 q 409 420 409 474 q 409 516 386 539 q 364 563 324 563 q 275 563 250 531 q 226 500 226 436 l 226 424 l 40 424 q 40 428 40 434 q 39 441 39 444 q 39 574 118 647 q 197 721 335 721 q 461 721 537 659 q 613 597 613 494 q 613 427 583 382 q 554 337 464 282 q 453 275 429 261 q 343 210 297 172 l 611 172 l 611 0 z"},"{":{"x_min":0,"x_max":500,"ha":500,"o":"m 442 582 q 438 582 431 583 q 424 583 421 583 q 378 583 364 568 q 349 554 349 506 l 349 389 q 349 324 326 297 q 303 270 243 259 q 304 248 326 221 q 349 194 349 130 l 349 12 q 349 -35 364 -49 q 378 -64 420 -64 q 423 -64 431 -63 q 438 -63 442 -63 l 442 -202 l 403 -202 q 335 -202 300 -197 q 264 -192 241 -180 q 212 -166 200 -139 q 188 -112 188 -48 l 188 78 q 188 140 165 166 q 143 191 88 191 q 85 191 80 190 q 74 190 71 190 l 71 328 q 74 328 80 328 q 85 327 88 327 q 143 327 165 353 q 188 378 188 440 l 188 566 q 188 631 200 658 q 212 685 241 699 q 265 711 300 716 q 335 721 403 721 l 442 721 z"},"9":{"x_min":0,"x_max":657,"ha":657,"o":"m 410 468 q 410 512 385 538 q 360 563 317 563 q 274 563 250 538 q 225 512 225 469 q 225 424 249 399 q 273 374 316 374 q 359 374 385 399 q 410 425 410 468 z m 417 290 q 390 265 350 252 q 311 239 261 239 q 151 239 85 302 q 19 364 19 469 q 19 585 96 653 q 173 720 308 720 q 465 720 545 628 q 625 535 625 353 q 625 178 541 80 q 457 -18 308 -18 q 197 -18 124 33 q 52 84 32 177 l 224 184 q 233 156 254 142 q 275 127 306 127 q 358 127 385 167 q 413 208 417 290 z"}," ":{"x_min":0,"x_max":329,"ha":329,"o":""},"I":{"x_min":0,"x_max":380,"ha":380,"o":"m 72 0 l 72 719 l 307 719 l 307 0 z"},"H":{"x_min":0,"x_max":813,"ha":813,"o":"m 68 0 l 68 719 l 299 719 l 299 475 l 514 475 l 514 719 l 745 719 l 745 0 l 514 0 l 514 279 l 299 279 l 299 0 z"},"4":{"x_min":0,"x_max":657,"ha":657,"o":"m 183 305 l 352 305 l 352 510 z m 347 0 l 347 146 l 25 146 l 25 316 l 352 701 l 547 701 l 547 305 l 630 305 l 630 146 l 547 146 l 547 0 z"},"~":{"x_min":0,"x_max":833,"ha":833,"o":"m 747 265 q 697 231 653 216 q 609 200 566 200 q 540 200 511 206 q 483 211 436 228 q 375 249 341 255 q 307 262 274 262 q 233 262 188 244 q 143 225 87 185 l 87 331 q 145 368 193 384 q 240 401 286 401 q 314 401 346 395 q 378 389 422 375 q 433 372 453 364 q 527 338 568 338 q 610 338 653 356 q 697 374 747 411 z"},"D":{"x_min":0,"x_max":784,"ha":784,"o":"m 299 182 l 361 182 q 447 182 481 221 q 514 259 514 359 q 514 456 480 497 q 446 537 364 537 l 299 537 z m 68 0 l 68 719 l 347 719 q 454 719 506 710 q 558 700 596 678 q 671 634 708 555 q 746 475 746 359 q 746 237 699 154 q 653 70 562 30 q 527 14 474 7 q 421 0 304 0 z"},"^":{"x_min":0,"x_max":1000,"ha":1000,"o":"m 582 714 l 798 438 l 650 438 l 500 589 l 349 438 l 201 438 l 417 714 z"},"0":{"x_min":0,"x_max":657,"ha":657,"o":"m 424 351 q 424 465 402 512 q 380 559 328 559 q 276 559 254 513 q 232 466 232 351 q 232 236 254 190 q 276 144 328 144 q 380 144 402 190 q 424 237 424 351 z m 21 351 q 21 533 99 627 q 177 721 328 721 q 480 721 559 627 q 637 533 637 351 q 637 168 559 74 q 480 -20 328 -20 q 177 -20 99 74 q 21 169 21 351 z"},"F":{"x_min":0,"x_max":632,"ha":632,"o":"m 68 0 l 68 719 l 612 719 l 612 538 l 299 538 l 299 427 l 548 427 l 548 253 l 299 253 l 299 0 z"},"`":{"x_min":0,"x_max":500,"ha":500,"o":"m 101 775 l 241 775 l 335 594 l 260 594 z"},"k":{"x_min":0,"x_max":671,"ha":671,"o":"m 57 0 l 57 719 l 268 719 l 268 368 l 407 531 l 644 531 l 447 335 l 671 0 l 420 0 l 304 190 l 268 153 l 268 0 z"},"u":{"x_min":0,"x_max":683,"ha":683,"o":"m 626 531 l 626 0 l 433 0 l 433 78 q 396 31 350 9 q 305 -14 247 -14 q 199 -14 161 2 q 123 18 96 50 q 73 78 63 119 q 53 160 53 256 l 53 531 l 264 531 l 264 257 q 264 196 280 173 q 296 150 336 150 q 375 150 395 177 q 415 204 415 258 l 415 531 z"},"]":{"x_min":0,"x_max":431,"ha":431,"o":"m 326 719 l 326 -175 l 10 -175 l 10 -28 l 139 -28 l 139 567 l 10 567 l 10 719 z"},"U":{"x_min":0,"x_max":815,"ha":815,"o":"m 66 719 l 297 719 l 297 276 q 297 214 323 188 q 348 162 408 162 q 467 162 492 188 q 517 213 517 276 l 517 719 l 748 719 l 748 258 q 748 123 661 51 q 574 -20 408 -20 q 242 -20 154 52 q 66 123 66 258 z"},"o":{"x_min":0,"x_max":658,"ha":658,"o":"m 242 266 q 242 192 262 160 q 283 128 329 128 q 375 128 396 160 q 417 193 417 266 q 417 339 396 371 q 375 403 329 403 q 283 403 262 371 q 242 339 242 266 z m 29 266 q 29 398 109 474 q 189 550 329 550 q 469 550 549 474 q 629 398 629 266 q 629 133 549 57 q 469 -19 329 -19 q 189 -19 109 57 q 29 133 29 266 z"},"N":{"x_min":0,"x_max":814,"ha":814,"o":"m 68 0 l 68 719 l 287 719 l 489 385 q 498 371 509 345 q 519 319 531 282 q 528 301 526 324 q 525 347 525 380 l 525 719 l 745 719 l 745 0 l 525 0 l 323 332 q 314 347 303 374 q 292 400 281 435 q 284 416 286 395 q 287 375 287 337 l 287 0 z"},"+":{"x_min":0,"x_max":833,"ha":833,"o":"m 485 596 l 485 365 l 709 365 l 709 232 l 485 232 l 485 0 l 348 0 l 348 232 l 124 232 l 124 365 l 348 365 l 348 596 z"},"G":{"x_min":0,"x_max":815,"ha":815,"o":"m 603 0 l 592 62 q 553 21 498 0 q 442 -20 369 -20 q 215 -20 126 81 q 37 183 37 359 q 37 539 136 638 q 235 738 414 738 q 555 738 641 668 q 727 598 743 471 l 524 471 q 511 514 481 537 q 452 559 408 559 q 339 559 304 506 q 270 453 270 347 q 270 250 305 201 q 339 153 410 153 q 461 153 496 177 q 532 200 540 240 l 436 240 l 436 394 l 752 394 l 752 0 z"},"q":{"x_min":0,"x_max":677,"ha":677,"o":"m 416 266 q 416 324 393 356 q 370 389 329 389 q 285 389 263 359 q 242 329 242 266 q 242 203 263 173 q 284 144 329 144 q 373 144 395 174 q 416 204 416 266 z m 620 531 l 620 -213 l 415 -213 l 415 52 q 385 17 347 -1 q 310 -18 261 -18 q 157 -18 94 59 q 31 136 31 264 q 31 392 94 469 q 158 546 263 546 q 317 546 358 526 q 398 506 433 462 l 433 531 z"},"d":{"x_min":0,"x_max":677,"ha":677,"o":"m 620 0 l 433 0 l 433 65 q 399 22 356 2 q 312 -19 259 -19 q 157 -19 94 58 q 31 136 31 263 q 31 390 94 468 q 157 547 257 547 q 305 547 344 529 q 382 511 414 474 l 414 719 l 620 719 z m 329 137 q 370 137 393 170 q 416 202 416 260 q 416 322 395 353 q 373 383 329 383 q 285 383 264 353 q 243 323 243 260 q 243 202 266 169 q 289 137 329 137 z"},"1":{"x_min":0,"x_max":657,"ha":657,"o":"m 259 0 l 259 408 l 101 408 l 101 554 q 199 556 246 589 q 292 623 305 701 l 464 701 l 464 0 z"},"5":{"x_min":0,"x_max":657,"ha":657,"o":"m 21 186 l 224 206 q 236 174 260 158 q 283 142 318 142 q 364 142 390 167 q 416 192 416 236 q 416 281 390 308 q 365 335 323 335 q 298 335 277 325 q 256 315 241 296 l 50 312 l 119 701 l 565 701 l 565 532 l 261 532 l 241 432 q 271 449 305 457 q 340 465 385 465 q 491 465 556 403 q 621 342 621 241 q 621 118 541 49 q 460 -20 316 -20 q 197 -20 120 34 q 42 88 21 186 z"}}}
